# xmcd CD database file
#
# Track frame offsets:
#	150
#	25617
#	45081
#	64369
#	86850
#	101833
#	130898
#	147148
#	160039
#	183480
#	205774
#	223871
#	247777
#
# Disc length: 3726 seconds
#
# Revision: 0
# Processed by: cddbd v1.5.1PL0 Copyright (c) Steve Scherf et al.
# Submitted via: CDex 1.51
#
DISCID=b00e8c0d
DTITLE=Glen Delpit - High Water Everywhere
DYEAR=1999
DGENRE=Blues
TTITLE0=Walkin' From Jerusalem
TTITLE1=Five Hights Up
TTITLE2=James Alley Blues
TTITLE3=Lonesome Boy Blues
TTITLE4=Drive It To The Stars
TTITLE5=Broke Down Engine
TTITLE6=Dark Carnival
TTITLE7=Three Penny Ball
TTITLE8=Shifting Sands
TTITLE9=Dyin' Crapshooters Blues
TTITLE10=There's A Road
TTITLE11=The Angels's Knife
TTITLE12=Stormy Weather
EXTD=YEAR: 1999
EXTT0=
EXTT1=
EXTT2=
EXTT3=
EXTT4=
EXTT5=
EXTT6=
EXTT7=
EXTT8=
EXTT9=
EXTT10=
EXTT11=
EXTT12=
PLAYORDER=
